# xmcd
#
# Track frame offsets: 
#        150
#        22558
#        42395
#        58183
#        76670
#        98989
#        114040
#        132382
#        154155
#        175399
#        192008
#        211057
#        228727
#        246665
#        268975
#        291061
#        306318
#        328475
#        331373
#
# Disc length: 4718 seconds
#
# Revision: 4
# Processed by: cddbd v1.5.2PL0 Copyright (c) Steve Scherf et al.
# Submitted via: ExactAudioCopyFreeDBPlugin 1.0
#
DISCID=15126c13
DTITLE=¡Mayday! - Future Vintage
DYEAR=2015
DGENRE=Rap
TTITLE0=Jettison
TTITLE1=Plex Missed The Photo Shoot (Interlude Skit) - Fuel To The Fir
TTITLE1=e
TTITLE2=Can't Take It With You
TTITLE3=Won't Wait
TTITLE4=In A Good Bar (Interlude Skit) - Coast
TTITLE5=Dive Feat. Stevie Stone
TTITLE6=This Is How You Rap (Interlude Skit) - Something In The Air Fe
TTITLE6=at. Femi Kuti
TTITLE7=The Future Is In Our Hands (Interlude Skit) - Space Cadet
TTITLE8=Into The Night
TTITLE9=Stay Away From You Feat. Ryan "Myagi" Evans
TTITLE10=Don't Be A Victim (Interlude Skit) - All The Time
TTITLE11=Ten Thirty Three
TTITLE12=You Might Wanna Know (Interlude Skit) - Antenna
TTITLE13=Voicemails Are Shitty (Interlude Skit) - One Wing Feat. Ces C
TTITLE13=ru
TTITLE14=LOL Bye Bye (Interlude Skit) - Know It Feat. Tech N9ne and Stig
TTITLE14=e
TTITLE15=Brother
TTITLE16=Against My Better Judgement
TTITLE17=The Sun Will Rise (Skit)
TTITLE18=The Last Sunrise
EXTD=
EXTT0=
EXTT1=
EXTT2=
EXTT3=
EXTT4=
EXTT5=
EXTT6=
EXTT7=
EXTT8=
EXTT9=
EXTT10=
EXTT11=
EXTT12=
EXTT13=
EXTT14=
EXTT15=
EXTT16=
EXTT17=
EXTT18=
PLAYORDER=
